<?xml version="1.0" encoding="UTF-8"?>
<svg width="48" height="17" version="1.1" viewBox="0 0 48 17" xmlns="http://www.w3.org/2000/svg" xmlns:xlink="http://www.w3.org/1999/xlink"><defs><linearGradient id="linearGradient9"><stop stop-color="#7da0d4" offset="0"/><stop stop-color="#bdcbda" offset="1"/></linearGradient><radialGradient id="radialGradient3" cx=".11" cy=".6" r="6.5" gradientTransform="matrix(.023 2.8 -2.7 .022 2.7 .8)" gradientUnits="userSpaceOnUse"><stop stop-color="#e1eafe" offset="0"/><stop stop-color="#aec8f7" offset="1"/></radialGradient><linearGradient id="linearGradient5" x2="13" y1="7" y2="7" gradientTransform="translate(1,1)" gradientUnits="userSpaceOnUse"><stop stop-color="#b8cbf6" stop-opacity=".57" offset="0"/><stop stop-color="#b0c4f2" stop-opacity=".68" offset="1"/></linearGradient><linearGradient id="linearGradient10" x1="9.36" x2="12.2" y1="16.5" y2="2.06" gradientUnits="userSpaceOnUse" xlink:href="#linearGradient9"/><linearGradient id="linearGradient10-0" x1="9.36" x2="12.2" y1="16.5" y2="2.06" gradientTransform="translate(16)" gradientUnits="userSpaceOnUse" xlink:href="#linearGradient9"/><radialGradient id="radialGradient3-6" cx=".11" cy=".6" r="6.5" gradientTransform="matrix(.023 2.8 -2.7 .022 18.7 .8)" gradientUnits="userSpaceOnUse"><stop stop-color="#fdffff" offset="0"/><stop stop-color="#b9dafb" offset="1"/></radialGradient><linearGradient id="linearGradient5-7" x2="13" y1="7" y2="7" gradientTransform="translate(17,1)" gradientUnits="userSpaceOnUse"><stop stop-color="#abbee9" offset="0"/><stop stop-color="#8da8e1" offset="1"/></linearGradient><linearGradient id="linearGradient10-9" x1="9.36" x2="12.2" y1="16.5" y2="2.06" gradientTransform="translate(32)" gradientUnits="userSpaceOnUse" xlink:href="#linearGradient9"/><radialGradient id="radialGradient3-8" cx=".11" cy=".6" r="6.5" gradientTransform="matrix(.023 2.8 -2.7 .022 34.7 .8)" gradientUnits="userSpaceOnUse"><stop stop-color="#6e8ef1" offset="0"/><stop stop-color="#d2deeb" offset="1"/></radialGradient><linearGradient id="linearGradient5-3" x2="13" y1="7" y2="7" gradientTransform="translate(33,1)" gradientUnits="userSpaceOnUse"><stop stop-color="#98a1dd" offset="0"/><stop stop-color="#b1c6f3" offset="1"/></linearGradient></defs><path d="m0 2.51v11.8c3e-7 1.48 1.2 2.68 2.69 2.68h10.6c1.49 0 2.69-1.2 2.69-2.68v-12c0-1.28-1.04-2.31-2.32-2.31h-11.2z" color="#000000" fill="url(#linearGradient10)" fill-rule="evenodd" stroke-width="1.06" style="-inkscape-stroke:none"/><rect x="1" y="1" width="13" height="14" fill="url(#radialGradient3)" stroke-linejoin="round" stroke-width="9.9"/><path d="m7.5 12-4.5-4.5 1.5-1.5 3 3 3-3 1.5 1.5z" fill="#4d6185" fill-rule="evenodd"/><path d="m1 1v14h13v-14zm1 1h11v12h-11z" fill="url(#linearGradient5)"/><path d="m0 2.36v11.1a2.52 2.52 0 0 0 2.52 2.52h9.96a2.52 2.52 0 0 0 2.52-2.52v-11.3a2.17 2.17 0 0 0-2.17-2.17h-10.5a2.36 2.36 0 0 0-2.36 2.36zm2.62-1.36h9.65a1.73 1.73 0 0 1 1.73 1.73v10.3a2 2 0 0 1-2 2h-8.94a2.05 2.05 0 0 1-2.05-2.05v-10.3a1.62 1.62 0 0 1 1.62-1.62z" color="#000000" fill="#fff" fill-rule="evenodd" style="-inkscape-stroke:none"/><path d="m16 2.51v11.8c0 1.48 1.2 2.68 2.69 2.68h10.6c1.49 0 2.69-1.2 2.69-2.68v-12c0-1.28-1.04-2.31-2.32-2.31h-11.2z" color="#000000" fill="url(#linearGradient10-0)" fill-rule="evenodd" stroke-width="1.06" style="-inkscape-stroke:none"/><rect x="17" y="1" width="13" height="14" fill="url(#radialGradient3-6)" stroke-linejoin="round" stroke-width="9.9"/><path d="m23.5 12-4.5-4.5 1.5-1.5 3 3 3-3 1.5 1.5z" fill="#4d6185" fill-rule="evenodd"/><path d="m17 1v14h13v-14zm1 1h11v12h-11z" fill="url(#linearGradient5-7)"/><path d="m16 2.36v11.1a2.52 2.52 0 0 0 2.52 2.52h9.96a2.52 2.52 0 0 0 2.52-2.52v-11.3a2.17 2.17 0 0 0-2.17-2.17h-10.5a2.36 2.36 0 0 0-2.36 2.36zm2.62-1.36h9.65a1.73 1.73 0 0 1 1.73 1.73v10.3a2 2 0 0 1-2 2h-8.94a2.05 2.05 0 0 1-2.05-2.05v-10.3a1.62 1.62 0 0 1 1.62-1.62z" color="#000000" fill="#fff" fill-rule="evenodd" style="-inkscape-stroke:none"/><path d="m32 2.51v11.8c0 1.48 1.2 2.68 2.69 2.68h10.6c1.49 0 2.69-1.2 2.69-2.68v-12c0-1.28-1.04-2.31-2.32-2.31h-11.2z" color="#000000" fill="url(#linearGradient10-9)" fill-rule="evenodd" stroke-width="1.06" style="-inkscape-stroke:none"/><rect x="33" y="1" width="13" height="14" fill="url(#radialGradient3-8)" stroke-linejoin="round" stroke-width="9.9"/><path d="m39.5 12-4.5-4.5 1.5-1.5 3 3 3-3 1.5 1.5z" fill="#4d6185" fill-rule="evenodd"/><path d="m33 1v14h13v-14zm1 1h11v12h-11z" fill="url(#linearGradient5-3)"/><path d="m32 2.36v11.1a2.52 2.52 0 0 0 2.52 2.52h9.96a2.52 2.52 0 0 0 2.52-2.52v-11.3a2.17 2.17 0 0 0-2.17-2.17h-10.5a2.36 2.36 0 0 0-2.36 2.36zm2.62-1.36h9.65a1.73 1.73 0 0 1 1.73 1.73v10.3a2 2 0 0 1-2 2h-8.94a2.05 2.05 0 0 1-2.05-2.05v-10.3a1.62 1.62 0 0 1 1.62-1.62z" color="#000000" fill="#fff" fill-rule="evenodd" style="-inkscape-stroke:none"/></svg>
