<?xml version="1.0" encoding="UTF-8"?>
<svg width="48" height="17" version="1.1" viewBox="0 0 48 17" xmlns="http://www.w3.org/2000/svg" xmlns:xlink="http://www.w3.org/1999/xlink"><defs><linearGradient id="linearGradient9"><stop stop-color="#7da0d4" offset="0"/><stop stop-color="#bdcbda" offset="1"/></linearGradient><radialGradient id="radialGradient3" cx=".11" cy=".6" r="6.5" gradientTransform="matrix(.023 2.8 -2.7 .022 2.7 .8)" gradientUnits="userSpaceOnUse"><stop stop-color="#e1eafe" offset="0"/><stop stop-color="#aec8f7" offset="1"/></radialGradient><linearGradient id="linearGradient5" x2="13" y1="7" y2="7" gradientTransform="translate(1,1)" gradientUnits="userSpaceOnUse"><stop stop-color="#b8cbf6" stop-opacity=".57" offset="0"/><stop stop-color="#b0c4f2" stop-opacity=".68" offset="1"/></linearGradient><linearGradient id="linearGradient10" x1="9.36" x2="12.2" y1="16.5" y2="2.06" gradientUnits="userSpaceOnUse" xlink:href="#linearGradient9"/><linearGradient id="linearGradient10-0" x1="9.36" x2="12.2" y1="16.5" y2="2.06" gradientTransform="translate(16)" gradientUnits="userSpaceOnUse" xlink:href="#linearGradient9"/><radialGradient id="radialGradient3-6" cx=".11" cy=".6" r="6.5" gradientTransform="matrix(.023 2.8 -2.7 .022 18.7 .8)" gradientUnits="userSpaceOnUse"><stop stop-color="#fdffff" offset="0"/><stop stop-color="#b9dafb" offset="1"/></radialGradient><linearGradient id="linearGradient5-7" x2="13" y1="7" y2="7" gradientTransform="translate(17,1)" gradientUnits="userSpaceOnUse"><stop stop-color="#abbee9" offset="0"/><stop stop-color="#8da8e1" offset="1"/></linearGradient><linearGradient id="linearGradient10-9" x1="9.36" x2="12.2" y1="16.5" y2="2.06" gradientTransform="translate(32)" gradientUnits="userSpaceOnUse" xlink:href="#linearGradient9"/><radialGradient id="radialGradient3-8" cx=".11" cy=".6" r="6.5" gradientTransform="matrix(.023 2.8 -2.7 .022 34.7 .8)" gradientUnits="userSpaceOnUse"><stop stop-color="#6e8ef1" offset="0"/><stop stop-color="#d2deeb" offset="1"/></radialGradient><linearGradient id="linearGradient5-3" x2="13" y1="7" y2="7" gradientTransform="translate(33,1)" gradientUnits="userSpaceOnUse"><stop stop-color="#98a1dd" offset="0"/><stop stop-color="#b1c6f3" offset="1"/></linearGradient></defs><g fill-rule="evenodd"><path d="m0 2.5v12c3e-7 1.48 1.01 2.5 2.5 2.5h11c1.49 0 2.5-1.02 2.5-2.5v-12c0-1.28-1.22-2.5-2.5-2.5h-11z" color="#000000" fill="url(#linearGradient10)" stroke-width="1.06" style="-inkscape-stroke:none"/><path d="m0 14c0 1.39 0.608 2 2 2h11c1.39 0 2-0.608 2-2v-12c0-1.2-0.802-2-2-2h-11c-1.3 0-2 0.697-2 2zm12.5-13c0.955 0 1.5 0.545 1.5 1.5v11c0 1.1-0.395 1.5-1.5 1.5h-10c-1.13 0-1.5-0.368-1.5-1.5v-11c0-0.895 0.605-1.5 1.5-1.5z" color="#000000" fill="#fff" style="-inkscape-stroke:none"/><path d="m16 2.5v12c0 1.48 1.01 2.5 2.5 2.5h11c1.49 0 2.5-1.02 2.5-2.5v-12c0-1.28-1.22-2.5-2.5-2.5h-11z" color="#000000" fill="url(#linearGradient10-0)" stroke-width="1.06" style="-inkscape-stroke:none"/><path d="m16 14c0 1.39 0.608 2 2 2h11c1.39 0 2-0.608 2-2v-12c0-1.2-0.802-2-2-2h-11c-1.3 0-2 0.697-2 2zm12.5-13c0.955 0 1.5 0.545 1.5 1.5v11c0 1.1-0.395 1.5-1.5 1.5h-10c-1.13 0-1.5-0.368-1.5-1.5v-11c0-0.895 0.605-1.5 1.5-1.5z" color="#000000" fill="#fff" style="-inkscape-stroke:none"/><path d="m32 2.5v12c0 1.48 1.01 2.5 2.5 2.5h11c1.49 0 2.5-1.02 2.5-2.5v-12c0-1.28-1.22-2.5-2.5-2.5h-11z" color="#000000" fill="url(#linearGradient10-9)" stroke-width="1.06" style="-inkscape-stroke:none"/><path d="m32 14c0 1.39 0.608 2 2 2h11c1.39 0 2-0.608 2-2v-12c0-1.2-0.802-2-2-2h-11c-1.3 0-2 0.697-2 2zm12.5-13c0.955 0 1.5 0.545 1.5 1.5v11c0 1.1-0.395 1.5-1.5 1.5h-10c-1.13 0-1.5-0.368-1.5-1.5v-11c0-0.895 0.605-1.5 1.5-1.5z" color="#000000" fill="#fff" style="-inkscape-stroke:none"/></g><rect x="1" y="1" width="13" height="14" fill="url(#radialGradient3)" stroke-linejoin="round" stroke-width="9.9"/><path d="m7.5 12-4.5-4.5 1.5-1.5 3 3 3-3 1.5 1.5z" fill="#4d6185" fill-rule="evenodd"/><path d="m1 1v14h13v-14zm1 1h11v12h-11z" fill="url(#linearGradient5)"/><rect x="17" y="1" width="13" height="14" fill="url(#radialGradient3-6)" stroke-linejoin="round" stroke-width="9.9"/><path d="m23.5 12-4.5-4.5 1.5-1.5 3 3 3-3 1.5 1.5z" fill="#4d6185" fill-rule="evenodd"/><path d="m17 1v14h13v-14zm1 1h11v12h-11z" fill="url(#linearGradient5-7)"/><rect x="33" y="1" width="13" height="14" fill="url(#radialGradient3-8)" stroke-linejoin="round" stroke-width="9.9"/><path d="m39.5 12-4.5-4.5 1.5-1.5 3 3 3-3 1.5 1.5z" fill="#4d6185" fill-rule="evenodd"/><path d="m33 1v14h13v-14zm1 1h11v12h-11z" fill="url(#linearGradient5-3)"/></svg>
