<?xml version="1.0" encoding="UTF-8"?>
<svg width="51" height="16" version="1.1" viewBox="0 0 51 16" xmlns="http://www.w3.org/2000/svg" xmlns:xlink="http://www.w3.org/1999/xlink"><defs><linearGradient id="linearGradient9"><stop stop-color="#7da0d4" offset="0"/><stop stop-color="#bdcbda" offset="1"/></linearGradient><radialGradient id="radialGradient3" cx=".11" cy=".6" r="6.5" gradientTransform="matrix(.0248 2.6 -2.91 .0204 2.83 .814)" gradientUnits="userSpaceOnUse"><stop stop-color="#e1eafe" offset="0"/><stop stop-color="#aec8f7" offset="1"/></radialGradient><linearGradient id="linearGradient5" x2="13" y1="7" y2="7" gradientTransform="translate(1,1)" gradientUnits="userSpaceOnUse"><stop stop-color="#b8cbf6" stop-opacity=".57" offset="0"/><stop stop-color="#b0c4f2" stop-opacity=".68" offset="1"/></linearGradient><linearGradient id="linearGradient10" x1="9.36" x2="12.2" y1="16.5" y2="2.06" gradientUnits="userSpaceOnUse" xlink:href="#linearGradient9"/><radialGradient id="radialGradient3-6" cx=".11" cy=".6" r="6.5" gradientTransform="matrix(.0248 2.6 -2.91 .0204 19.8 .814)" gradientUnits="userSpaceOnUse"><stop stop-color="#fdffff" offset="0"/><stop stop-color="#b9dafb" offset="1"/></radialGradient><linearGradient id="linearGradient5-7" x2="13" y1="7" y2="7" gradientTransform="translate(18,1)" gradientUnits="userSpaceOnUse"><stop stop-color="#abbee9" offset="0"/><stop stop-color="#8da8e1" offset="1"/></linearGradient><radialGradient id="radialGradient3-8" cx=".11" cy=".6" r="6.5" gradientTransform="matrix(.0248 2.6 -2.91 .0204 36.8 .814)" gradientUnits="userSpaceOnUse"><stop stop-color="#6e8ef1" offset="0"/><stop stop-color="#d2deeb" offset="1"/></radialGradient><linearGradient id="linearGradient5-3" x2="13" y1="7" y2="7" gradientTransform="translate(35,1)" gradientUnits="userSpaceOnUse"><stop stop-color="#98a1dd" offset="0"/><stop stop-color="#b1c6f3" offset="1"/></linearGradient><linearGradient id="linearGradient11" x1="9.36" x2="12.2" y1="16.5" y2="2.06" gradientTransform="translate(17)" gradientUnits="userSpaceOnUse" xlink:href="#linearGradient9"/><linearGradient id="linearGradient12" x1="9.36" x2="12.2" y1="16.5" y2="2.06" gradientTransform="translate(34)" gradientUnits="userSpaceOnUse" xlink:href="#linearGradient9"/></defs><path d="m34 2.51v10.8c0 1.48 1.2 2.68 2.69 2.68h11.6c1.49 0 2.69-1.2 2.69-2.68v-11c0-1.28-1.04-2.31-2.32-2.31h-12.2z" color="#000000" fill="url(#linearGradient12)" fill-rule="evenodd" stroke-width="1.06" style="-inkscape-stroke:none"/><path d="m0 2.51v10.8c3e-7 1.48 1.2 2.68 2.69 2.68h11.6c1.49 0 2.69-1.2 2.69-2.68v-11c0-1.28-1.04-2.31-2.32-2.31h-12.2z" color="#000000" fill="url(#linearGradient10)" fill-rule="evenodd" stroke-width="1.06" style="-inkscape-stroke:none"/><rect x="1" y="1" width="14" height="13" fill="url(#radialGradient3)" stroke-linejoin="round" stroke-width="9.9"/><path d="m12 7.5-4.5 4.5-1.5-1.5 3-3-3-3 1.5-1.5z" fill="#4d6185" fill-rule="evenodd"/><path d="m1 1v13h14v-13zm1 1h12v11h-12z" fill="url(#linearGradient5)"/><path d="m0 2.36v10.1c2.76e-7 1.39 1.13 2.52 2.52 2.52h11c1.39 0 2.52-1.13 2.52-2.52v-10.3c0-1.2-0.974-2.17-2.17-2.17h-11.5c-1.3 0-2.36 1.06-2.36 2.36zm2.62-1.36h10.7c0.953 0 1.73 0.773 1.73 1.73v9.27c0 1.11-0.897 2-2 2h-9.94c-1.13 0-2.05-0.92-2.05-2.05v-9.32c0-0.896 0.726-1.62 1.62-1.62z" color="#000000" fill="#fff" fill-rule="evenodd" style="-inkscape-stroke:none"/><path d="m17 2.51v10.8c0 1.48 1.2 2.68 2.69 2.68h11.6c1.49 0 2.69-1.2 2.69-2.68v-11c0-1.28-1.04-2.31-2.32-2.31h-12.2z" color="#000000" fill="url(#linearGradient11)" fill-rule="evenodd" stroke-width="1.06" style="-inkscape-stroke:none"/><rect x="18" y="1" width="14" height="13" fill="url(#radialGradient3-6)" stroke-linejoin="round" stroke-width="9.9"/><path d="m18 1v13h14v-13zm1 1h12v11h-12z" fill="url(#linearGradient5-7)"/><rect x="35" y="1" width="14" height="13" fill="url(#radialGradient3-8)" stroke-linejoin="round" stroke-width="9.9"/><path d="m35 1v13h14v-13zm1 1h12v11h-12z" fill="url(#linearGradient5-3)"/><g fill-rule="evenodd"><path d="m17 2.36v10.1c0 1.39 1.13 2.52 2.52 2.52h11c1.39 0 2.52-1.13 2.52-2.52v-10.3c0-1.2-0.974-2.17-2.17-2.17h-11.5c-1.3 0-2.36 1.06-2.36 2.36zm2.62-1.36h10.7c0.953 0 1.73 0.773 1.73 1.73v9.27c0 1.11-0.897 2-2 2h-9.94c-1.13 0-2.05-0.92-2.05-2.05v-9.32c0-0.896 0.726-1.62 1.62-1.62z" color="#000000" fill="#fff" style="-inkscape-stroke:none"/><path d="m34 2.36v10.1c0 1.39 1.13 2.52 2.52 2.52h11c1.39 0 2.52-1.13 2.52-2.52v-10.3c0-1.2-0.974-2.17-2.17-2.17h-11.5c-1.3 0-2.36 1.06-2.36 2.36zm2.62-1.36h10.7c0.953 0 1.73 0.773 1.73 1.73v9.27c0 1.11-0.897 2-2 2h-9.94c-1.13 0-2.05-0.92-2.05-2.05v-9.32c0-0.896 0.726-1.62 1.62-1.62z" color="#000000" fill="#fff" style="-inkscape-stroke:none"/><path d="m29 7.5-4.5 4.5-1.5-1.5 3-3-3-3 1.5-1.5z" fill="#4d6185"/><path d="m46 7.5-4.5 4.5-1.5-1.5 3-3-3-3 1.5-1.5z" fill="#4d6185"/></g></svg>
