<?xml version="1.0" encoding="UTF-8"?>
<svg width="74" height="23" version="1.1" viewBox="0 0 74 23" xmlns="http://www.w3.org/2000/svg"><g fill-rule="evenodd"><path d="m0 21s5.54-15.7 6.5-17.5 1.63-3.46 4-3.5c2.37-0.0356 51.2-0.0256 53 0s3.07 1.08 4 3.5c0.927 2.42 6.5 17.5 6.5 17.5v2h-74z"/><path d="m1 22s5.54-15.7 6.5-17.5 1.81-3.5 4-3.5 49.2-0.0256 51 0c1.78 0.0256 3.07 1.08 4 3.5 0.927 2.42 6.5 17.5 6.5 17.5h1v1h-74v-1z" fill="#444"/><path d="m62 1s-1.28-0.0256 0.5 0c1.78 0.0256 3.07 1.08 4 3.5 0.927 2.42 6.5 17.5 6.5 17.5h-3l-4-10.5z" fill="#888"/><path d="m2 22s5.54-14.7 6.5-16.5 1.81-3.5 4-3.5 47.2-0.0256 49 0 3.07 1.08 4 3.5c0.927 2.42 6.5 16.5 6.5 16.5v1h-70z" fill="#555"/><path d="m3 22s5.54-13.7 6.5-15.5c0.956-1.82 1.81-3.5 4-3.5s46.2-0.0256 48 0 3.07 0.0813 4 2.5c0.927 2.42 6.5 16.5 6.5 16.5v1h-70z" fill="#666"/></g></svg>
