<?xml version="1.0" encoding="UTF-8"?>
<svg width="12" height="12" version="1.1" viewBox="0 0 12 12" xmlns="http://www.w3.org/2000/svg"><g fill-rule="evenodd"><path d="m0 0v1.5l4 4-4 4v1.5h1.5l4-4 4 4h1.5v-1.5l-4-4 4-4v-1.5h-1.5l-4 4-4-4h-1.5zm0.5 0.5h0.5l4.5 4.5 4.5-4.5h0.5v0.5l-4.5 4.5 4.5 4.5v0.5h-0.5l-4.5-4.5-4.5 4.5h-0.5v-0.5l4.5-4.5-4.5-4.5v-0.5z" fill="#fff" opacity=".65"/><g><path d="m1.5 11 4-4 0.5 0.5-3.5 3.5z" opacity=".47"/><path d="m1.5 0 4 4 0.5-0.5-3.5-3.5z" opacity=".47"/><path d="m7 5.5 4-4v-1.5h1v2l-3.5 3.5 3.5 3.5v2h-1v-1.5z" opacity=".47"/></g></g></svg>
