<?xml version="1.0" encoding="UTF-8"?>
<svg width="11" height="22" version="1.1" viewBox="0 0 11 22" xmlns="http://www.w3.org/2000/svg"><g transform="translate(-5.5,5.5)" fill-rule="evenodd"><path d="m5.5-5.5h5.5l-5.5 11z" opacity=".15"/><path d="m16-5.5h-5.5l5.5 11z" opacity=".15"/><path d="m11-5.5-5.5 11 1.5-1 4-8.5z" fill="#fff" opacity=".65"/><g transform="matrix(0,1,1,0,5.5,-5.5)"><path d="m11 0v11l-11-5.5h1.5l8.5 4v-8z" opacity=".47"/><path d="m11 0v5.5l11-5.5z" opacity=".15"/><path d="m11 11v-5.5l11 5.5z" opacity=".15"/><path d="m11 5.5 11-5.5-1 1.5-8.5 4z" opacity=".47"/></g><path d="m5.5 16h11l-5.5-11v1.5l4 8.5h-8z" fill="#fff" opacity=".65"/></g></svg>
