<?xml version="1.0" encoding="UTF-8"?>
<svg width="51" height="16" version="1.1" viewBox="0 0 51 16" xmlns="http://www.w3.org/2000/svg" xmlns:xlink="http://www.w3.org/1999/xlink"><defs><linearGradient id="linearGradient32" x1="9.36" x2="12.2" y1="16.5" y2="2.06" gradientTransform="translate(34)" gradientUnits="userSpaceOnUse" xlink:href="#linearGradient26"/><linearGradient id="linearGradient26"><stop stop-color="#84ad5c" offset="0"/><stop stop-color="#b6c1a6" offset="1"/></linearGradient><radialGradient id="radialGradient38" cx="39.5" cy="8" r="6.5" gradientTransform="matrix(1.08 0 0 1 -.538 -.5)" gradientUnits="userSpaceOnUse"><stop stop-color="#99ac7c" offset="0"/><stop stop-color="#879770" offset="1"/></radialGradient><linearGradient id="linearGradient30" x1="9.36" x2="12.2" y1="16.5" y2="2.06" gradientTransform="translate(17)" gradientUnits="userSpaceOnUse" xlink:href="#linearGradient26"/><linearGradient id="linearGradient31" x1="7.66" x2="7.66" y1="1.36" y2="14.5" gradientTransform="matrix(1.08 0 0 .929 16.9 .0714)" gradientUnits="userSpaceOnUse"><stop stop-color="#c8d5aa" offset="0"/><stop stop-color="#c3d096" offset="1"/></linearGradient><linearGradient id="linearGradient29-5" x1="8.76" x2="8.76" y1="2.03" y2="13.8" gradientTransform="translate(17)" gradientUnits="userSpaceOnUse"><stop stop-color="#dae8b9" offset="0"/><stop stop-color="#c3d096" offset="1"/></linearGradient><linearGradient id="linearGradient10-4" x1="9.36" x2="12.2" y1="16.5" y2="2.06" gradientUnits="userSpaceOnUse" xlink:href="#linearGradient26"/><linearGradient id="linearGradient27" x1="7.66" x2="7.66" y1="1.36" y2="14.5" gradientTransform="matrix(1.08 0 0 .929 -.0769 .0714)" gradientUnits="userSpaceOnUse"><stop stop-color="#a2b38d" offset="0"/><stop stop-color="#95a775" offset="1"/></linearGradient><linearGradient id="linearGradient29" x1="8.76" x2="8.76" y1="2.03" y2="13.8" gradientUnits="userSpaceOnUse"><stop stop-color="#cbd7ba" offset="0"/><stop stop-color="#97a97d" offset="1"/></linearGradient></defs><path d="m34 2.51v11c0 1.48 1.01 2.5 2.5 2.5h12c1.49 0 2.5-1.02 2.5-2.5v-11c0-1.28-1.22-2.5-2.5-2.5h-12z" color="#000000" fill="url(#linearGradient32)" fill-rule="evenodd" stroke-width="1.06" style="-inkscape-stroke:none"/><rect x="35" y="1" width="14" height="13" fill="url(#radialGradient38)" stroke-linejoin="round" stroke-width="9.9"/><path d="m35 1v12h14v-12zm1 1h12v10h-12z" fill="#768361"/><path d="m34 13c0 1.39 0.608 2 2 2h12c1.39 0 2-0.608 2-2v-11c0-1.2-0.802-2-2-2h-12c-1.3 0-2 0.697-2 2zm13.5-12c0.955 0 1.5 0.545 1.5 1.5v10c0 1.1-0.395 1.5-1.5 1.5h-11c-1.13 0-1.5-0.368-1.5-1.5v-10c0-0.895 0.605-1.5 1.5-1.5z" color="#000000" fill="#fafafa" fill-rule="evenodd" style="-inkscape-stroke:none"/><path d="m17 2.51v11c0 1.48 1.01 2.5 2.5 2.5h12c1.49 0 2.5-1.02 2.5-2.5v-11c0-1.28-1.22-2.5-2.5-2.5h-12z" color="#000000" fill="url(#linearGradient30)" fill-rule="evenodd" stroke-width="1.06" style="-inkscape-stroke:none"/><rect x="18" y="1" width="14" height="13" fill="url(#linearGradient31)" stroke-linejoin="round" stroke-width="9.9"/><g><path d="m18 1v13h14v-13zm1 1h12v11h-12z" fill="#9dab77"/><path d="m17 13c0 1.39 0.608 2 2 2h12c1.39 0 2-0.608 2-2v-11c0-1.2-0.802-2-2-2h-12c-1.3 0-2 0.697-2 2zm13.5-12c0.955 0 1.5 0.545 1.5 1.5v10c0 1.1-0.395 1.5-1.5 1.5h-11c-1.13 0-1.5-0.368-1.5-1.5v-10c0-0.895 0.605-1.5 1.5-1.5z" color="#000000" fill="#fafafa" fill-rule="evenodd" style="-inkscape-stroke:none"/><path d="m19 2v11h1v-10h10v10h1v-11z" fill="url(#linearGradient29-5)" stroke-width="10"/></g><path d="m0 2.51v11c3e-7 1.48 1.01 2.5 2.5 2.5h12c1.49 0 2.5-1.02 2.5-2.5v-11c0-1.28-1.22-2.5-2.5-2.5h-12z" color="#000000" fill="url(#linearGradient10-4)" fill-rule="evenodd" stroke-width="1.06" style="-inkscape-stroke:none"/><rect x="1" y="1" width="14" height="13" fill="url(#linearGradient27)" stroke-linejoin="round" stroke-width="9.9"/><g><path d="m1 1v13h14v-13zm1 1h12v11h-12z" fill="#8e997d"/><path d="m0 13c0 1.39 0.608 2 2 2h12c1.39 0 2-0.608 2-2v-11c0-1.2-0.802-2-2-2h-12c-1.3 0-2 0.697-2 2zm13.5-12c0.955 0 1.5 0.545 1.5 1.5v10c0 1.1-0.395 1.5-1.5 1.5h-11c-1.13 0-1.5-0.368-1.5-1.5v-10c0-0.895 0.605-1.5 1.5-1.5z" color="#000000" fill="#fafafa" fill-rule="evenodd" style="-inkscape-stroke:none"/><path d="m2 2v11h1v-10h10v10h1v-11z" fill="url(#linearGradient29)" stroke-width="10"/><rect x="35" y="13" width="14" height="1" fill="#fafafa" stroke-width="10.2"/></g><g fill="#fff" fill-rule="evenodd"><path d="m12 7.5-4.5 4.5-1.5-1.5 3-3-3-3 1.5-1.5z"/><path d="m29 7.5-4.5 4.5-1.5-1.5 3-3-3-3 1.5-1.5z"/><path d="m46 7.5-4.5 4.5-1.5-1.5 3-3-3-3 1.5-1.5z"/></g></svg>
