<?xml version="1.0" encoding="UTF-8"?>
<svg width="48" height="17" version="1.1" viewBox="0 0 48 17" xmlns="http://www.w3.org/2000/svg" xmlns:xlink="http://www.w3.org/1999/xlink"><defs><linearGradient id="linearGradient26"><stop stop-color="#84ad5c" offset="0"/><stop stop-color="#b6c1a6" offset="1"/></linearGradient><linearGradient id="linearGradient10" x1="9.36" x2="12.2" y1="16.5" y2="2.06" gradientUnits="userSpaceOnUse" xlink:href="#linearGradient26"/><linearGradient id="linearGradient27" x1="7.66" x2="7.66" y1="1.36" y2="14.5" gradientTransform="matrix(-3.2 .000129 0 -1.89 7.63 .0602)" gradientUnits="userSpaceOnUse"><stop stop-color="#a2b38d" offset="0"/><stop stop-color="#95a775" offset="1"/></linearGradient><linearGradient id="linearGradient29" x1="8.76" x2="8.76" y1="2.03" y2="13.8" gradientUnits="userSpaceOnUse"><stop stop-color="#cbd7ba" offset="0"/><stop stop-color="#97a97d" offset="1"/></linearGradient><linearGradient id="linearGradient29-5" x1="8.76" x2="8.76" y1="2.03" y2="13.8" gradientTransform="translate(16)" gradientUnits="userSpaceOnUse"><stop stop-color="#dae8b9" offset="0"/><stop stop-color="#c3d096" offset="1"/></linearGradient><linearGradient id="linearGradient30" x1="9.36" x2="12.2" y1="16.5" y2="2.06" gradientTransform="translate(16)" gradientUnits="userSpaceOnUse" xlink:href="#linearGradient26"/><linearGradient id="linearGradient31" x1="7.66" x2="7.66" y1="1.36" y2="14.5" gradientTransform="translate(16)" gradientUnits="userSpaceOnUse"><stop stop-color="#c8d5aa" offset="0"/><stop stop-color="#c3d096" offset="1"/></linearGradient><linearGradient id="linearGradient32" x1="9.36" x2="12.2" y1="16.5" y2="2.06" gradientTransform="translate(32)" gradientUnits="userSpaceOnUse" xlink:href="#linearGradient26"/><radialGradient id="radialGradient38" cx="39.5" cy="8" r="6.5" gradientTransform="matrix(1 0 0 1.08 0 -.615)" gradientUnits="userSpaceOnUse"><stop stop-color="#99ac7c" offset="0"/><stop stop-color="#879770" offset="1"/></radialGradient></defs><path d="m32 2.51v12c0 1.48 1.01 2.5 2.5 2.5h11c1.49 0 2.5-1.02 2.5-2.5v-12c0-1.28-1.22-2.5-2.5-2.5h-11z" color="#000000" fill="url(#linearGradient32)" fill-rule="evenodd" stroke-width="1.06" style="-inkscape-stroke:none"/><rect x="33" y="1" width="13" height="14" fill="url(#radialGradient38)" stroke-linejoin="round" stroke-width="9.9"/><path d="m33 1v13h13v-13zm1 1h11v11h-11z" fill="#768361"/><path d="m32 14c0 1.39 0.608 2 2 2h11c1.39 0 2-0.608 2-2v-12c0-1.2-0.802-2-2-2h-11c-1.3 0-2 0.697-2 2zm12.5-13c0.955 0 1.5 0.545 1.5 1.5v11c0 1.1-0.395 1.5-1.5 1.5h-10c-1.13 0-1.5-0.368-1.5-1.5v-11c0-0.895 0.605-1.5 1.5-1.5z" color="#000000" fill="#fafafa" fill-rule="evenodd" style="-inkscape-stroke:none"/><path d="m16 2.51v12c0 1.48 1.01 2.5 2.5 2.5h11c1.49 0 2.5-1.02 2.5-2.5v-12c0-1.28-1.22-2.5-2.5-2.5h-11z" color="#000000" fill="url(#linearGradient30)" fill-rule="evenodd" stroke-width="1.06" style="-inkscape-stroke:none"/><rect x="17" y="1" width="13" height="14" fill="url(#linearGradient31)" stroke-linejoin="round" stroke-width="9.9"/><path d="m17 1v14h13v-14zm1 1h11v12h-11z" fill="#9dab77"/><path d="m16 14c0 1.39 0.608 2 2 2h11c1.39 0 2-0.608 2-2v-12c0-1.2-0.802-2-2-2h-11c-1.3 0-2 0.697-2 2zm12.5-13c0.955 0 1.5 0.545 1.5 1.5v11c0 1.1-0.395 1.5-1.5 1.5h-10c-1.13 0-1.5-0.368-1.5-1.5v-11c0-0.895 0.605-1.5 1.5-1.5z" color="#000000" fill="#fafafa" fill-rule="evenodd" style="-inkscape-stroke:none"/><path d="m18 2v12h1v-11h9v11h1v-12z" fill="url(#linearGradient29-5)" stroke-width="10"/><path d="m0 2.51v12c3e-7 1.48 1.01 2.5 2.5 2.5h11c1.49 0 2.5-1.02 2.5-2.5v-12c0-1.28-1.22-2.5-2.5-2.5h-11z" color="#000000" fill="url(#linearGradient10)" fill-rule="evenodd" stroke-width="1.06" style="-inkscape-stroke:none"/><rect x="1" y="1" width="13" height="14" fill="url(#linearGradient27)" stroke-linejoin="round" stroke-width="9.9"/><path d="m7.5 12-4.5-4.5 1.5-1.5 3 3 3-3 1.5 1.5z" fill="#fff" fill-rule="evenodd"/><path d="m1 1v14h13v-14zm1 1h11v12h-11z" fill="#8e997d"/><path d="m0 14c0 1.39 0.608 2 2 2h11c1.39 0 2-0.608 2-2v-12c0-1.2-0.802-2-2-2h-11c-1.3 0-2 0.697-2 2zm12.5-13c0.955 0 1.5 0.545 1.5 1.5v11c0 1.1-0.395 1.5-1.5 1.5h-10c-1.13 0-1.5-0.368-1.5-1.5v-11c0-0.895 0.605-1.5 1.5-1.5z" color="#000000" fill="#fafafa" fill-rule="evenodd" style="-inkscape-stroke:none"/><g><path d="m23.5 12-4.5-4.5 1.5-1.5 3 3 3-3 1.5 1.5z" fill="#fff" fill-rule="evenodd"/><path d="m39.5 12-4.5-4.5 1.5-1.5 3 3 3-3 1.5 1.5z" fill="#fff" fill-rule="evenodd"/><path d="m2 2v12h1v-11h9v11h1v-12h-11z" fill="url(#linearGradient29)" stroke-width="10"/></g><rect x="33" y="14" width="13" height="1" fill="#fafafa" stroke-width="9.8"/></svg>
