<?xml version="1.0" encoding="UTF-8"?>
<svg width="51" height="16" version="1.1" viewBox="0 0 51 16" xmlns="http://www.w3.org/2000/svg" xmlns:xlink="http://www.w3.org/1999/xlink"><defs><linearGradient id="linearGradient26" x1="6.19" x2="6.19" y1="3.63" y2="10.7" gradientTransform="matrix(1.15 0 0 .933 -.154 .0667)" gradientUnits="userSpaceOnUse"><stop stop-color="#fbfcfc" offset="0"/><stop stop-color="#cbccda" offset="1"/></linearGradient><linearGradient id="linearGradient27" x1="6.19" x2="6.19" y1="5.76" y2="10.2" gradientTransform="matrix(1.15 0 0 .933 16.8 .0667)" gradientUnits="userSpaceOnUse"><stop stop-color="#fbfcfc" offset="0"/><stop stop-color="#cfd1e3" offset="1"/></linearGradient><linearGradient id="linearGradient28" x1="6.33" x2="6.33" y1="2.08" y2="7.24" gradientTransform="matrix(1.15 0 0 .933 33.8 .0667)" gradientUnits="userSpaceOnUse"><stop stop-color="#bfc2db" offset="0"/><stop stop-color="#fff" offset="1"/></linearGradient></defs><rect x="1" y="1" width="15" height="14" fill="url(#linearGradient26)" fill-rule="evenodd" stroke-linejoin="round" stroke-width="10.6"/><g fill-rule="evenodd"><path d="m3 1c-0.895 0-1.99 1.11-1.99 2l-0.00977 10c-0.00103 1.13 0.868 2 2 2h11c1.1 0 2-0.895 2-2v-10c0-0.955-1.04-2-2-2zm0.691 1h9.62c0.808 0 1.69 0.904 1.69 1.73v8.54c0 0.957-0.757 1.73-1.69 1.73h-9.62c-0.958 0-1.69-0.751-1.69-1.73l0.00781-8.54c6.91e-4 -0.775 0.927-1.73 1.68-1.73z" fill="#fff"/><path d="m1.19 13.9c0.314 0.679 0.992 1.13 1.81 1.13h11c0.794 0 1.48-0.463 1.8-1.13h-1.84c-0.2 0.085-0.419 0.133-0.648 0.133h-9.62c-0.239 0-0.464-0.0471-0.668-0.133z" fill="#d9dae4"/><path d="m0 13.5c-0.00174 1.39 1.11 2.5 2.5 2.5h12c1.39 0 2.5-1.11 2.5-2.5v-11c0-1.2-1.3-2.5-2.5-2.5h-12c-1.3 0-2.5 1.2-2.5 2.5zm14-12.5c0.955 0 2 1.04 2 2v10c0 1.1-0.895 2-2 2h-11c-1.13 0-2-0.868-2-2l0.01-10c8.95e-4 -0.895 1.1-2 1.99-2z" color="#000000" fill="#9495a2" style="-inkscape-stroke:none"/><rect x="3" width="11" height="1" fill="#b4b4bd" stroke-width="11.1"/><rect x="3" y="15" width="11" height="1" fill="#9d9eab" stroke-width="11.1"/></g><rect x="18" y="1" width="15" height="14" fill="url(#linearGradient27)" fill-rule="evenodd" stroke-linejoin="round" stroke-width="10.6"/><rect x="35" y="1" width="15" height="14" fill="url(#linearGradient28)" fill-rule="evenodd" stroke-linejoin="round" stroke-width="10.6"/><g fill-rule="evenodd"><path d="m12 7.5-4.5 4.5-1.5-1.5 3-3-3-3 1.5-1.5z" fill="#3f3d3d"/><path d="m20 1c-0.895 0-1.99 1.11-1.99 2l-0.0098 10c-1e-3 1.13 0.868 2 2 2h11c1.1 0 2-0.895 2-2v-10c0-0.955-1.04-2-2-2zm0.691 1h9.62c0.808 0 1.69 0.904 1.69 1.73v8.54c0 0.957-0.757 1.73-1.69 1.73h-9.62c-0.958 0-1.69-0.751-1.69-1.73l0.0078-8.54c7.01e-4 -0.775 0.927-1.73 1.68-1.73z" fill="#fff"/><path d="m18.2 13.9c0.314 0.679 0.992 1.13 1.81 1.13h11c0.794 0 1.48-0.463 1.8-1.13h-1.84c-0.2 0.085-0.419 0.133-0.648 0.133h-9.62c-0.239 0-0.464-0.0471-0.668-0.133z" fill="#d9dae4"/><path d="m17 13.5c-0.0017 1.39 1.11 2.5 2.5 2.5h12c1.39 0 2.5-1.11 2.5-2.5v-11c0-1.2-1.3-2.5-2.5-2.5h-12c-1.3 0-2.5 1.2-2.5 2.5zm14-12.5c0.955 0 2 1.04 2 2v10c0 1.1-0.895 2-2 2h-11c-1.13 0-2-0.868-2-2l0.01-10c8.95e-4 -0.895 1.1-2 1.99-2z" color="#000000" fill="#5b6665" style="-inkscape-stroke:none"/><path d="m29 7.5-4.5-4.5-1.5 1.5 3 3-3 3 1.5 1.5z" fill="#202020"/><path d="m37 1c-0.895 0-1.99 1.11-1.99 2l-0.0098 10c-1e-3 1.13 0.868 2 2 2h11c1.1 0 2-0.895 2-2v-10c0-0.955-1.04-2-2-2zm0.691 1h9.62c0.808 0 1.69 0.904 1.69 1.73v8.54c0 0.957-0.757 1.73-1.69 1.73h-9.62c-0.958 0-1.69-0.751-1.69-1.73l0.0078-8.54c7.01e-4 -0.775 0.927-1.73 1.68-1.73z" fill="#fff"/><path d="m35.2 13.9c0.314 0.679 0.992 1.13 1.81 1.13h11c0.794 0 1.48-0.463 1.8-1.13h-1.84c-0.2 0.085-0.419 0.133-0.648 0.133h-9.62c-0.239 0-0.464-0.0471-0.668-0.133z" fill="#a0b5cd"/><path d="m34 13.5c-0.0017 1.39 1.11 2.5 2.5 2.5h12c1.39 0 2.5-1.11 2.5-2.5v-11c0-1.2-1.3-2.5-2.5-2.5h-12c-1.3 0-2.5 1.2-2.5 2.5zm14-12.5c0.955 0 2 1.04 2 2v10c0 1.1-0.895 2-2 2h-11c-1.13 0-2-0.868-2-2l0.01-10c8.95e-4 -0.895 1.1-2 1.99-2z" color="#000000" fill="#5b6665" style="-inkscape-stroke:none"/><path d="m46 7.5-4.5-4.5-1.5 1.5 3 3-3 3 1.5 1.5z" fill="#202020"/></g></svg>
