<?xml version="1.0" encoding="UTF-8"?>
<svg width="13" height="13" version="1.1" viewBox="0 0 13 13" xmlns="http://www.w3.org/2000/svg"><g><path d="m0 5v7h8v-7zm1 2 5 4.5e-4v4l-5-4.6e-4z" fill="#fff" stroke-width="1.6"/><path d="m1 4v7h7v-7zm1 1h5v5h-5z" fill="#252536" stroke-width="1.9"/><path d="m2 6h5v-1h-5z" fill="#6e6d8f" fill-rule="evenodd" stroke-width=".49"/><path d="m4 3h6v-1h-6z" fill="#6e6d8f" fill-rule="evenodd" stroke-width=".53"/></g><g fill-rule="evenodd"><path d="m3 4v-3h1v2h6v4h-1v-3z" fill="#fff"/><path d="m9 7h-1v2h3v-1h-2z" fill="#fff"/><path d="m4 1h7v7h-2v-1h1v-5h-6z" fill="#252536"/></g></svg>
